<svg width="36" height="36" viewBox="0 0 36 36" fill="none" xmlns="http://www.w3.org/2000/svg">
<circle cx="18" cy="18" r="18" fill="#323F4E"/>
<path d="M21.5 12.6667V11M14.5 12.6667V11M11.1944 15.1667H24.8056M11 16.87C11 15.1075 11 14.2258 11.3391 13.5525C11.6456 12.9518 12.1214 12.4702 12.6987 12.1767C13.3644 11.8333 14.2356 11.8333 15.9778 11.8333H20.0222C21.7644 11.8333 22.6356 11.8333 23.3013 12.1767C23.887 12.4783 24.3622 12.96 24.6609 13.5517C25 14.2267 25 15.1083 25 16.8708V20.9642C25 22.7267 25 23.6083 24.6609 24.2817C24.3544 24.8824 23.8786 25.3639 23.3013 25.6575C22.6356 26 21.7644 26 20.0222 26H15.9778C14.2356 26 13.3644 26 12.6987 25.6567C12.1215 25.3633 11.6457 24.8821 11.3391 24.2817C11 23.6067 11 22.725 11 20.9625V16.87Z" stroke="white" stroke-width="1.5" stroke-linecap="round" stroke-linejoin="round"/>
</svg>
