<svg width="19" height="18" viewBox="0 0 19 18" fill="none" xmlns="http://www.w3.org/2000/svg">
<rect x="19" y="18" width="19" height="18" transform="rotate(-180 19 18)" fill="#323F4E"/>
<path d="M10.8224 12.8158C10.8787 12.7578 10.9233 12.6889 10.9538 12.6131C10.9843 12.5373 11 12.456 11 12.3739C11 12.2918 10.9843 12.2105 10.9538 12.1346C10.9233 12.0588 10.8787 11.9899 10.8224 11.9319L8.46544 9.49945L10.8224 7.06702C10.9359 6.9498 10.9997 6.79082 10.9997 6.62505C10.9997 6.45927 10.9359 6.30029 10.8224 6.18307C10.7088 6.06585 10.5547 6 10.3941 6C10.2335 6 10.0794 6.06585 9.96585 6.18307L7.17764 9.06061C7.12133 9.11861 7.07666 9.1875 7.04617 9.26334C7.01569 9.33918 7 9.42048 7 9.50259C7 9.58469 7.01569 9.66599 7.04617 9.74183C7.07666 9.81767 7.12133 9.88657 7.17764 9.94456L9.96585 12.8221C10.1967 13.0603 10.5854 13.0603 10.8224 12.8158Z" fill="white"/>
</svg>
