<svg width="20" height="20" viewBox="0 0 20 20" fill="none" xmlns="http://www.w3.org/2000/svg">
<path d="M10 10L7.53501 12.4409C5.10001 14.8525 3.88251 16.0584 4.22334 17.0992C4.25251 17.1884 4.28834 17.275 4.33168 17.3592C4.83334 18.3334 6.55584 18.3334 10 18.3334C13.4442 18.3334 15.1667 18.3334 15.6683 17.3584C15.7117 17.275 15.7475 17.1884 15.7767 17.0992C15.9683 16.5134 15.6675 15.8759 14.9325 15M10 10L12.465 12.4409M10 10L12.465 7.55919C14.9 5.14752 16.1175 3.94169 15.7767 2.90085C15.7475 2.81144 15.7113 2.7245 15.6683 2.64085C15.1667 1.66669 13.4442 1.66669 10 1.66669C6.55584 1.66669 4.83334 1.66669 4.33168 2.64169C4.28834 2.72502 4.25251 2.81169 4.22334 2.90085C4.03168 3.48669 4.33251 4.12419 5.06751 5.00002M10 10L7.53501 7.55919" stroke="black" stroke-width="1.5" stroke-linecap="round"/>
</svg>
