<svg width="19" height="18" viewBox="0 0 19 18" fill="none" xmlns="http://www.w3.org/2000/svg">
<rect width="19" height="18" fill="#323F4E"/>
<path d="M9.13323 6.15785C9.091 6.20757 9.05749 6.26662 9.03463 6.33162C9.01177 6.39663 9 6.46631 9 6.53669C9 6.60707 9.01177 6.67675 9.03463 6.74176C9.05749 6.80676 9.091 6.86581 9.13323 6.91553L10.9009 9.00047L9.13323 11.0854C9.04805 11.1859 9.00019 11.3222 9.00019 11.4642C9.00019 11.6063 9.04805 11.7426 9.13323 11.8431C9.21842 11.9436 9.33395 12 9.45442 12C9.57489 12 9.69043 11.9436 9.77561 11.8431L11.8668 9.37662C11.909 9.3269 11.9425 9.26786 11.9654 9.20285C11.9882 9.13784 12 9.06816 12 8.99778C12 8.9274 11.9882 8.85772 11.9654 8.79271C11.9425 8.72771 11.909 8.66866 11.8668 8.61895L9.77561 6.15248C9.60249 5.94829 9.31091 5.94829 9.13323 6.15785Z" fill="white"/>
</svg>
