<svg width="36" height="36" viewBox="0 0 36 36" fill="none" xmlns="http://www.w3.org/2000/svg">
<circle cx="18" cy="18" r="18" fill="#323F4E"/>
<path d="M18 18L15.535 20.4408C13.1 22.8525 11.8825 24.0583 12.2233 25.0992C12.2525 25.1883 12.2883 25.275 12.3317 25.3592C12.8333 26.3333 14.5558 26.3333 18 26.3333C21.4442 26.3333 23.1667 26.3333 23.6683 25.3583C23.7117 25.275 23.7475 25.1883 23.7767 25.0992C23.9683 24.5133 23.6675 23.8758 22.9325 23M18 18L20.465 20.4408M18 18L20.465 15.5592C22.9 13.1475 24.1175 11.9417 23.7767 10.9008C23.7475 10.8114 23.7113 10.7245 23.6683 10.6408C23.1667 9.66667 21.4442 9.66667 18 9.66667C14.5558 9.66667 12.8333 9.66667 12.3317 10.6417C12.2883 10.725 12.2525 10.8117 12.2233 10.9008C12.0317 11.4867 12.3325 12.1242 13.0675 13M18 18L15.535 15.5592" stroke="white" stroke-width="1.5" stroke-linecap="round"/>
</svg>
